<svg width="225" height="75" viewBox="0 0 225 75" fill="none" xmlns="http://www.w3.org/2000/svg">
<path opacity="0.07" d="M66.15 37.55C66.15 42.8167 65.2333 47.6833 63.4 52.15C61.6 56.5833 59.05 60.4333 55.75 63.7C52.45 66.9333 48.4667 69.4667 43.8 71.3C39.1667 73.1 34.0167 74 28.35 74H0.0500001V1.15H28.35C34.0167 1.15 39.1667 2.06666 43.8 3.9C48.4667 5.73333 52.45 8.26666 55.75 11.5C59.05 14.7333 61.6 18.5833 63.4 23.05C65.2333 27.4833 66.15 32.3167 66.15 37.55ZM48.85 37.55C48.85 33.95 48.3833 30.7 47.45 27.8C46.5167 24.9 45.1667 22.45 43.4 20.45C41.6667 18.4167 39.5333 16.8667 37 15.8C34.4667 14.7 31.5833 14.15 28.35 14.15H17.05V61H28.35C31.5833 61 34.4667 60.4667 37 59.4C39.5333 58.3 41.6667 56.75 43.4 54.75C45.1667 52.7167 46.5167 50.25 47.45 47.35C48.3833 44.45 48.85 41.1833 48.85 37.55ZM152.124 37.55C152.124 42.8167 151.208 47.7167 149.374 52.25C147.574 56.7833 145.024 60.7333 141.724 64.1C138.424 67.4333 134.441 70.05 129.774 71.95C125.141 73.85 119.991 74.8 114.324 74.8C108.658 74.8 103.491 73.85 98.8242 71.95C94.1576 70.05 90.1576 67.4333 86.8242 64.1C83.5242 60.7333 80.9576 56.7833 79.1242 52.25C77.3242 47.7167 76.4242 42.8167 76.4242 37.55C76.4242 32.2833 77.3242 27.3833 79.1242 22.85C80.9576 18.3167 83.5242 14.3833 86.8242 11.05C90.1576 7.71666 94.1576 5.1 98.8242 3.2C103.491 1.3 108.658 0.349998 114.324 0.349998C119.991 0.349998 125.141 1.31666 129.774 3.25C134.441 5.15 138.424 7.76667 141.724 11.1C145.024 14.4333 147.574 18.3667 149.374 22.9C151.208 27.4333 152.124 32.3167 152.124 37.55ZM134.824 37.55C134.824 33.95 134.358 30.7167 133.424 27.85C132.491 24.95 131.141 22.5 129.374 20.5C127.641 18.5 125.508 16.9667 122.974 15.9C120.441 14.8333 117.558 14.3 114.324 14.3C111.058 14.3 108.141 14.8333 105.574 15.9C103.041 16.9667 100.891 18.5 99.1242 20.5C97.3909 22.5 96.0576 24.95 95.1242 27.85C94.1909 30.7167 93.7242 33.95 93.7242 37.55C93.7242 41.1833 94.1909 44.45 95.1242 47.35C96.0576 50.2167 97.3909 52.65 99.1242 54.65C100.891 56.65 103.041 58.1833 105.574 59.25C108.141 60.2833 111.058 60.8 114.324 60.8C117.558 60.8 120.441 60.2833 122.974 59.25C125.508 58.1833 127.641 56.65 129.374 54.65C131.141 52.65 132.491 50.2167 133.424 47.35C134.358 44.45 134.824 41.1833 134.824 37.55ZM215.67 55.15C216.07 55.15 216.47 55.2333 216.87 55.4C217.27 55.5333 217.653 55.7833 218.02 56.15L224.72 63.2C221.786 67.0333 218.103 69.9333 213.67 71.9C209.27 73.8333 204.053 74.8 198.02 74.8C192.486 74.8 187.52 73.8667 183.12 72C178.753 70.1 175.036 67.5 171.97 64.2C168.936 60.8667 166.603 56.9333 164.97 52.4C163.336 47.8333 162.52 42.8833 162.52 37.55C162.52 32.1167 163.403 27.1333 165.17 22.6C166.936 18.0333 169.42 14.1 172.62 10.8C175.82 7.5 179.653 4.93333 184.12 3.09999C188.586 1.26666 193.503 0.349998 198.87 0.349998C201.603 0.349998 204.17 0.599997 206.57 1.1C209.003 1.56666 211.27 2.23333 213.37 3.09999C215.47 3.93333 217.403 4.95 219.17 6.14999C220.936 7.34999 222.503 8.65 223.87 10.05L218.17 17.7C217.803 18.1667 217.37 18.6 216.87 19C216.37 19.3667 215.67 19.55 214.77 19.55C214.17 19.55 213.603 19.4167 213.07 19.15C212.536 18.8833 211.97 18.5667 211.37 18.2C210.77 17.8 210.103 17.3833 209.37 16.95C208.67 16.4833 207.82 16.0667 206.82 15.7C205.853 15.3 204.703 14.9667 203.37 14.7C202.07 14.4333 200.536 14.3 198.77 14.3C195.97 14.3 193.403 14.8167 191.07 15.85C188.77 16.8833 186.77 18.4 185.07 20.4C183.403 22.3667 182.103 24.8 181.17 27.7C180.27 30.5667 179.82 33.85 179.82 37.55C179.82 41.2833 180.32 44.6 181.32 47.5C182.353 50.4 183.736 52.85 185.47 54.85C187.236 56.8167 189.286 58.3167 191.62 59.35C193.953 60.3833 196.453 60.9 199.12 60.9C200.653 60.9 202.053 60.8333 203.32 60.7C204.586 60.5333 205.77 60.2833 206.87 59.95C207.97 59.5833 209.003 59.1167 209.97 58.55C210.936 57.95 211.92 57.2 212.92 56.3C213.32 55.9667 213.753 55.7 214.22 55.5C214.686 55.2667 215.17 55.15 215.67 55.15Z" fill="#66B5F8"/>
</svg>
