<?xml version="1.0" encoding="utf-8"?><svg width="283" height="88" fill="none" xmlns="http://www.w3.org/2000/svg" viewBox="0 0 283 88"><path opacity=".07" d="M17.05 14.15V32.6h24.9v13.05h-24.9V74h-17V1.15h46.9v13h-29.9zm32.526 52c0-1.2.216-2.317.65-3.35a9.04 9.04 0 011.85-2.7 8.776 8.776 0 012.8-1.8c1.066-.467 2.233-.7 3.5-.7 1.233 0 2.383.233 3.45.7 1.066.433 2 1.033 2.8 1.8a7.966 7.966 0 011.85 2.7c.466 1.033.7 2.15.7 3.35a8.39 8.39 0 01-.7 3.4 7.966 7.966 0 01-1.85 2.7 8.777 8.777 0 01-2.8 1.8c-1.067.433-2.217.65-3.45.65-1.267 0-2.434-.217-3.5-.65a8.776 8.776 0 01-2.8-1.8 9.04 9.04 0 01-1.85-2.7 8.945 8.945 0 01-.65-3.4zm70.826-20l-6.75-19.95a87.823 87.823 0 01-1.6-4.45c-.567-1.733-1.134-3.6-1.7-5.6a81.18 81.18 0 01-3.2 10.15l-6.7 19.85h19.95zM147.252 74h-13.1c-1.467 0-2.65-.333-3.55-1a6.698 6.698 0 01-2.05-2.65l-4.3-12.7h-27.7l-4.3 12.7c-.367.933-1.034 1.783-2 2.55-.934.733-2.1 1.1-3.5 1.1h-13.2l28.2-72.85h17.3l28.2 72.85zm6.343-7.85c0-1.2.217-2.317.65-3.35a9.06 9.06 0 011.85-2.7 8.783 8.783 0 012.8-1.8c1.067-.467 2.234-.7 3.5-.7 1.234 0 2.384.233 3.45.7 1.067.433 2 1.033 2.8 1.8a7.96 7.96 0 011.85 2.7c.467 1.033.7 2.15.7 3.35 0 1.2-.233 2.333-.7 3.4a7.96 7.96 0 01-1.85 2.7 8.772 8.772 0 01-2.8 1.8c-1.066.433-2.216.65-3.45.65-1.266 0-2.433-.217-3.5-.65a8.783 8.783 0 01-2.8-1.8 9.06 9.06 0 01-1.85-2.7 8.953 8.953 0 01-.65-3.4zm43.914-28.6c0 3.633.466 6.9 1.4 9.8.933 2.867 2.266 5.3 4 7.3 1.766 2 3.916 3.533 6.45 4.6 2.566 1.033 5.483 1.55 8.75 1.55 3.233 0 6.116-.517 8.65-1.55 2.533-1.067 4.666-2.6 6.4-4.6 1.766-2 3.116-4.433 4.05-7.3.933-2.9 1.4-6.167 1.4-9.8 0-3.6-.467-6.833-1.4-9.7-.934-2.9-2.284-5.35-4.05-7.35-1.734-2-3.867-3.533-6.4-4.6-2.534-1.067-5.417-1.6-8.65-1.6-3.267 0-6.184.533-8.75 1.6-2.534 1.067-4.684 2.6-6.45 4.6-1.734 2-3.067 4.45-4 7.35-.934 2.867-1.4 6.1-1.4 9.7zm62.5 50.1h-13.9c-2 0-3.8-.267-5.4-.8-1.567-.5-3.034-1.45-4.4-2.85l-9.05-10.15c-2.834.633-5.884.95-9.15.95-5.667 0-10.834-.95-15.5-2.85-4.667-1.9-8.667-4.517-12-7.85-3.3-3.367-5.867-7.317-7.7-11.85-1.8-4.533-2.7-9.433-2.7-14.7 0-5.267.9-10.167 2.7-14.7 1.833-4.533 4.4-8.467 7.7-11.8 3.333-3.333 7.333-5.95 12-7.85 4.666-1.9 9.833-2.85 15.5-2.85 5.666 0 10.816.967 15.45 2.9 4.666 1.9 8.65 4.517 11.95 7.85 3.3 3.333 5.85 7.267 7.65 11.8 1.833 4.533 2.75 9.417 2.75 14.65 0 3.133-.334 6.15-1 9.05a36.391 36.391 0 01-2.8 8.1 33.3 33.3 0 01-4.5 7.05 33.015 33.015 0 01-6.05 5.75l18.45 20.15zm4.832-21.5c0-1.2.217-2.317.65-3.35a9.06 9.06 0 011.85-2.7 8.783 8.783 0 012.8-1.8c1.067-.467 2.234-.7 3.5-.7 1.234 0 2.384.233 3.45.7 1.067.433 2 1.033 2.8 1.8a7.96 7.96 0 011.85 2.7c.467 1.033.7 2.15.7 3.35 0 1.2-.233 2.333-.7 3.4a7.96 7.96 0 01-1.85 2.7 8.772 8.772 0 01-2.8 1.8c-1.066.433-2.216.65-3.45.65-1.266 0-2.433-.217-3.5-.65a8.783 8.783 0 01-2.8-1.8 9.06 9.06 0 01-1.85-2.7 8.953 8.953 0 01-.65-3.4z" fill="#66B5F8"/></svg>