<svg width="385" height="75" viewBox="0 0 385 75" fill="none" xmlns="http://www.w3.org/2000/svg">
<path opacity="0.07" d="M40.05 36.25H65.95V67C62.2167 69.7333 58.2333 71.7167 54 72.95C49.8 74.1833 45.4 74.8 40.8 74.8C34.8 74.8 29.3333 73.8667 24.4 72C19.5 70.1 15.3 67.5 11.8 64.2C8.3 60.8667 5.6 56.9333 3.7 52.4C1.8 47.8333 0.85 42.8833 0.85 37.55C0.85 32.1167 1.75 27.1333 3.55 22.6C5.35 18.0333 7.91667 14.1 11.25 10.8C14.6167 7.5 18.6667 4.93333 23.4 3.09999C28.1667 1.26666 33.4833 0.349998 39.35 0.349998C42.3833 0.349998 45.2333 0.599997 47.9 1.1C50.5667 1.6 53.0167 2.28333 55.25 3.15C57.5167 4.01666 59.5833 5.05 61.45 6.25C63.3167 7.45 64.9833 8.75 66.45 10.15L61.55 17.6C60.7833 18.7667 59.7833 19.4833 58.55 19.75C57.35 20.0167 56.05 19.7167 54.65 18.85C53.3167 18.05 52.05 17.3667 50.85 16.8C49.6833 16.2 48.4833 15.7167 47.25 15.35C46.0167 14.9833 44.7167 14.7167 43.35 14.55C41.9833 14.3833 40.45 14.3 38.75 14.3C35.5833 14.3 32.7333 14.8667 30.2 16C27.6667 17.1 25.5 18.6667 23.7 20.7C21.9333 22.7333 20.5667 25.1833 19.6 28.05C18.6333 30.8833 18.15 34.05 18.15 37.55C18.15 41.4167 18.6833 44.85 19.75 47.85C20.8167 50.85 22.3167 53.3833 24.25 55.45C26.2167 57.5167 28.55 59.1 31.25 60.2C33.9833 61.2667 37 61.8 40.3 61.8C42.3333 61.8 44.1667 61.6 45.8 61.2C47.4667 60.8 49.0833 60.2667 50.65 59.6V48.55H43.45C42.3833 48.55 41.55 48.2667 40.95 47.7C40.35 47.1333 40.05 46.4167 40.05 45.55V36.25ZM112.216 60.65C114.482 60.65 116.499 60.2833 118.266 59.55C120.066 58.7833 121.582 57.7 122.816 56.3C124.049 54.9 124.982 53.2 125.616 51.2C126.282 49.1667 126.616 46.8667 126.616 44.3V1.15H143.516V44.3C143.516 48.7667 142.782 52.8667 141.316 56.6C139.882 60.3333 137.816 63.55 135.116 66.25C132.416 68.95 129.132 71.05 125.266 72.55C121.399 74.05 117.049 74.8 112.216 74.8C107.349 74.8 102.982 74.05 99.1156 72.55C95.249 71.05 91.9656 68.95 89.2656 66.25C86.5656 63.55 84.499 60.3333 83.0656 56.6C81.6323 52.8667 80.9156 48.7667 80.9156 44.3V1.15H97.8156V44.25C97.8156 46.8167 98.1323 49.1167 98.7656 51.15C99.4323 53.15 100.382 54.8667 101.616 56.3C102.849 57.7 104.349 58.7833 106.116 59.55C107.916 60.2833 109.949 60.65 112.216 60.65ZM178.218 74H161.218V1.15H178.218V74ZM262.873 37.55C262.873 42.8167 261.956 47.6833 260.123 52.15C258.323 56.5833 255.773 60.4333 252.473 63.7C249.173 66.9333 245.189 69.4667 240.523 71.3C235.889 73.1 230.739 74 225.073 74H196.773V1.15H225.073C230.739 1.15 235.889 2.06666 240.523 3.9C245.189 5.73333 249.173 8.26666 252.473 11.5C255.773 14.7333 258.323 18.5833 260.123 23.05C261.956 27.4833 262.873 32.3167 262.873 37.55ZM245.573 37.55C245.573 33.95 245.106 30.7 244.173 27.8C243.239 24.9 241.889 22.45 240.123 20.45C238.389 18.4167 236.256 16.8667 233.723 15.8C231.189 14.7 228.306 14.15 225.073 14.15H213.773V61H225.073C228.306 61 231.189 60.4667 233.723 59.4C236.256 58.3 238.389 56.75 240.123 54.75C241.889 52.7167 243.239 50.25 244.173 47.35C245.106 44.45 245.573 41.1833 245.573 37.55ZM294.347 14.15V31.15H317.247V43.65H294.347V61H324.247V74H277.347V1.15H324.247V14.15H294.347ZM379.421 15.95C378.921 16.75 378.388 17.35 377.821 17.75C377.288 18.15 376.588 18.35 375.721 18.35C374.954 18.35 374.121 18.1167 373.221 17.65C372.354 17.15 371.354 16.6 370.221 16C369.121 15.4 367.854 14.8667 366.421 14.4C364.988 13.9 363.354 13.65 361.521 13.65C358.354 13.65 355.988 14.3333 354.421 15.7C352.888 17.0333 352.121 18.85 352.121 21.15C352.121 22.6167 352.588 23.8333 353.521 24.8C354.454 25.7667 355.671 26.6 357.171 27.3C358.704 28 360.438 28.65 362.371 29.25C364.338 29.8167 366.338 30.4667 368.371 31.2C370.404 31.9 372.388 32.7333 374.321 33.7C376.288 34.6667 378.021 35.9 379.521 37.4C381.054 38.9 382.288 40.7333 383.221 42.9C384.154 45.0333 384.621 47.6167 384.621 50.65C384.621 54.0167 384.038 57.1667 382.871 60.1C381.704 63.0333 380.004 65.6 377.771 67.8C375.571 69.9667 372.838 71.6833 369.571 72.95C366.338 74.1833 362.654 74.8 358.521 74.8C356.254 74.8 353.938 74.5667 351.571 74.1C349.238 73.6333 346.971 72.9833 344.771 72.15C342.571 71.2833 340.504 70.2667 338.571 69.1C336.638 67.9333 334.954 66.6333 333.521 65.2L338.521 57.3C338.921 56.7333 339.438 56.2667 340.071 55.9C340.738 55.5 341.454 55.3 342.221 55.3C343.221 55.3 344.221 55.6167 345.221 56.25C346.254 56.8833 347.404 57.5833 348.671 58.35C349.971 59.1167 351.454 59.8167 353.121 60.45C354.788 61.0833 356.754 61.4 359.021 61.4C362.088 61.4 364.471 60.7333 366.171 59.4C367.871 58.0333 368.721 55.8833 368.721 52.95C368.721 51.25 368.254 49.8667 367.321 48.8C366.388 47.7333 365.154 46.85 363.621 46.15C362.121 45.45 360.404 44.8333 358.471 44.3C356.538 43.7667 354.554 43.1833 352.521 42.55C350.488 41.8833 348.504 41.0833 346.571 40.15C344.638 39.1833 342.904 37.9333 341.371 36.4C339.871 34.8333 338.654 32.9 337.721 30.6C336.788 28.2667 336.321 25.4 336.321 22C336.321 19.2667 336.871 16.6 337.971 14C339.071 11.4 340.688 9.08333 342.821 7.04999C344.954 5.01666 347.571 3.4 350.671 2.19999C353.771 0.966663 357.321 0.349998 361.321 0.349998C363.554 0.349998 365.721 0.533331 367.821 0.899999C369.954 1.23333 371.971 1.75 373.871 2.44999C375.771 3.11666 377.538 3.93333 379.171 4.9C380.838 5.83333 382.321 6.9 383.621 8.1L379.421 15.95Z" fill="#66B5F8"/>
</svg>
