<svg id='ic_visibility' width="17" height="12" viewBox="0 0 17 12" fill="none" xmlns="http://www.w3.org/2000/svg">
  <path fill-rule="evenodd" clip-rule="evenodd" d="M8.5 0C4.63636 0 1.33682 2.42321 0 5.84375C1.33682 9.26429 4.63636 11.6875 8.5 11.6875C12.3636 11.6875 15.6632 9.26429 17 5.84375C15.6632 2.42321 12.3636 0 8.5 0ZM8.49944 9.74053C6.36671 9.74053 4.6358 7.9952 4.6358 5.8447C4.6358 3.6942 6.36671 1.94887 8.49944 1.94887C10.6322 1.94887 12.3631 3.6942 12.3631 5.8447C12.3631 7.9952 10.6322 9.74053 8.49944 9.74053ZM8.49958 3.50587C7.21685 3.50587 6.1814 4.54995 6.1814 5.84337C6.1814 7.13679 7.21685 8.18087 8.49958 8.18087C9.78231 8.18087 10.8178 7.13679 10.8178 5.84337C10.8178 4.54995 9.78231 3.50587 8.49958 3.50587Z" fill="#67758D"/>
  <mask id="mask0" mask-type="alpha" maskUnits="userSpaceOnUse" x="0" y="0" width="17" height="12">
    <path fill-rule="evenodd" clip-rule="evenodd" d="M8.5 0C4.63636 0 1.33682 2.42321 0 5.84375C1.33682 9.26429 4.63636 11.6875 8.5 11.6875C12.3636 11.6875 15.6632 9.26429 17 5.84375C15.6632 2.42321 12.3636 0 8.5 0ZM8.49944 9.74053C6.36671 9.74053 4.6358 7.9952 4.6358 5.8447C4.6358 3.6942 6.36671 1.94887 8.49944 1.94887C10.6322 1.94887 12.3631 3.6942 12.3631 5.8447C12.3631 7.9952 10.6322 9.74053 8.49944 9.74053ZM8.49958 3.50587C7.21685 3.50587 6.1814 4.54995 6.1814 5.84337C6.1814 7.13679 7.21685 8.18087 8.49958 8.18087C9.78231 8.18087 10.8178 7.13679 10.8178 5.84337C10.8178 4.54995 9.78231 3.50587 8.49958 3.50587Z" fill="white"/>
  </mask>
  <g mask="url(#mask0)">
  </g>
</svg>
