<svg width="17" height="16" viewBox="0 0 17 16" fill="none" xmlns="http://www.w3.org/2000/svg">
<path d="M1.92633 3.85266C2.99022 3.85266 3.85266 2.99022 3.85266 1.92633C3.85266 0.862448 2.99022 0 1.92633 0C0.862448 0 0 0.862448 0 1.92633C0 2.99022 0.862448 3.85266 1.92633 3.85266Z" fill="white"/>
<path d="M5.67309 5.3119V15.9992H8.99134V10.7141C8.99134 9.31951 9.25371 7.96897 10.9828 7.96897C12.6882 7.96897 12.7093 9.56339 12.7093 10.8021V16H16.0293V10.1392C16.0293 7.26024 15.4095 5.04778 12.0446 5.04778C10.4291 5.04778 9.34615 5.93435 8.9033 6.77337H8.8584V5.3119H5.67309ZM0.265625 5.3119H3.58916V15.9992H0.265625V5.3119Z" fill="white"/>
</svg>
