<svg id="logo-small" width="157" height="36" viewBox="0 0 157 36"  xmlns="http://www.w3.org/2000/svg">
    <path d="M0 17.4521L7.08214 17.4521C12.7819 17.4521 16.7207 21.3868 16.7207 26.5569C16.7207 31.689 12.7819 35.6617 7.08214 35.6617L-2.18307e-06 35.6617L0 17.4521ZM7.08214 32.0502C10.3581 32.0502 12.5547 29.8453 12.5547 26.5569C12.5547 23.3256 10.3581 21.0636 7.08214 21.0636L3.99554 21.0636L3.99554 32.0502L7.08214 32.0502Z" fill="currentColor"/>
    <path d="M19.0308 31.6113C19.0308 28.5701 21.341 27.1635 24.6359 27.1635C26.0372 27.1635 27.0408 27.3916 28.0255 27.7337L28.0255 27.5056C28.0255 25.871 27.0218 24.9586 25.0525 24.9586C23.5565 24.9586 22.4772 25.2437 21.2084 25.7189L20.2237 22.6967C21.7576 22.0124 23.2535 21.5752 25.6206 21.5752C27.7793 21.5752 29.3321 22.1454 30.3167 23.1338C31.3582 24.1793 31.8127 25.7189 31.8127 27.5817L31.8127 35.679L28.0065 35.679L28.0065 34.1774C27.0408 35.2418 25.7152 35.9451 23.8027 35.9451C21.1895 35.9261 19.0308 34.4245 19.0308 31.6113ZM28.0823 30.756L28.0823 30.0527C27.4006 29.7486 26.5295 29.5395 25.5638 29.5395C23.8784 29.5395 22.8369 30.2238 22.8369 31.5163C22.8369 32.5807 23.7269 33.208 24.9957 33.208C26.8325 33.208 28.0823 32.1816 28.0823 30.756Z" fill="currentColor"/>
    <path d="M35.7323 31.7249L35.7323 25.1102L34.0659 25.1102L34.0659 21.7268L35.7323 21.7268L35.7323 18.1533L39.671 18.1533L39.671 21.7268L42.947 21.7268L42.947 25.1102L39.671 25.1102L39.671 31.0787C39.671 31.991 40.0687 32.4282 40.9398 32.4282C41.6593 32.4282 42.3221 32.2381 42.8902 31.934L42.8902 35.1083C42.057 35.6025 41.1102 35.9067 39.7847 35.9067C37.3608 35.9067 35.7323 34.9373 35.7323 31.7249Z" fill="currentColor"/>
    <path d="M45.0112 31.6113C45.0112 28.5701 47.3214 27.1635 50.6163 27.1635C52.0176 27.1635 53.0213 27.3916 54.0059 27.7337L54.0059 27.5056C54.0059 25.871 53.0023 24.9586 51.0329 24.9586C49.537 24.9586 48.4576 25.2437 47.1889 25.7189L46.2042 22.6967C47.738 22.0124 49.234 21.5752 51.601 21.5752C53.7598 21.5752 55.3125 22.1454 56.2972 23.1338C57.3387 24.1793 57.7932 25.7189 57.7932 27.5817L57.7932 35.679L53.987 35.679L53.987 34.1774C53.0212 35.2418 51.6957 35.9451 49.7832 35.9451C47.17 35.9261 45.0112 34.4245 45.0112 31.6113ZM54.0627 30.756L54.0627 30.0527C53.381 29.7486 52.51 29.5395 51.5442 29.5395C49.8589 29.5395 48.8174 30.2238 48.8174 31.5163C48.8174 32.5807 49.7074 33.208 50.9761 33.208C52.8319 33.208 54.0627 32.1816 54.0627 30.756Z" fill="currentColor"/>
    <path fill-rule="evenodd" clip-rule="evenodd" d="M151.452 23.0375C142.021 9.12377 126.115 -5.645e-07 108.088 -1.29116e-07C90.3445 2.99408e-07 74.6653 8.85766 65.1782 22.3913C74.7978 10.8345 89.2462 3.49745 105.418 3.49745C122.195 3.49745 137.136 11.4047 146.737 23.7218L151.452 23.0375Z"/>
    <path d="M62.6218 33.0161L64.9888 30.1839C66.6173 31.5335 68.3405 32.3888 70.4045 32.3888C72.0331 32.3888 73.0177 31.7426 73.0177 30.6211C73.0177 29.6137 72.3928 29.0815 69.3631 28.3021C65.7084 27.3708 63.3413 26.3443 63.3413 22.6758C63.3413 19.3684 65.9924 17.1825 69.7039 17.1825C72.355 17.1825 74.6084 18.0189 76.4452 19.5015L74.3622 22.5237C72.7526 21.4023 71.1809 20.718 69.6471 20.718C68.1133 20.718 67.3179 21.4213 67.3179 22.3527C67.3179 23.5502 68.0943 23.9493 71.2377 24.7477C74.9114 25.7171 76.9944 27.0476 76.9944 30.2599C76.9944 33.8714 74.2486 35.9053 70.3288 35.9053C67.5831 35.9243 64.7994 34.9739 62.6218 33.0161Z" />
    <path d="M79.9484 30.7544L79.9484 21.7257L83.8871 21.7257L83.8871 29.4999C83.8871 31.3817 84.7771 32.3321 86.2731 32.3321C87.769 32.3321 88.7348 31.3627 88.7348 29.4999L88.7348 21.7257L92.6735 21.7257L92.6735 35.6775L88.7348 35.6775L88.7348 33.7007C87.8259 34.8792 86.6518 35.9436 84.6635 35.9436C81.6905 35.9246 79.9484 33.9478 79.9484 30.7544Z" />
    <path d="M96.1954 21.7251L100.134 21.7251L100.134 23.7019C101.043 22.5234 102.217 21.459 104.205 21.459C107.178 21.459 108.921 23.4358 108.921 26.6481L108.921 35.6769L104.982 35.6769L104.982 27.9027C104.982 26.0209 104.092 25.0705 102.596 25.0705C101.1 25.0705 100.134 26.0399 100.134 27.9027L100.134 35.6769L96.1954 35.6769L96.1954 21.7251Z"/>
    <path d="M112.367 21.7239L116.306 21.7239L116.306 24.5371C117.101 22.6173 118.408 21.3628 120.737 21.4578L120.737 25.6015L120.529 25.6015C117.915 25.6015 116.306 27.1982 116.306 30.5245L116.306 35.6757L112.367 35.6757L112.367 21.7239Z"/>
    <path d="M123.274 16.6696L127.421 16.6696L127.421 20.1861L123.274 20.1861L123.274 16.6696ZM123.388 21.7257L127.327 21.7257L127.327 35.6775L123.388 35.6775L123.388 21.7257Z"/>
    <path d="M129.94 33.8133L131.625 31.2092C133.121 32.3116 134.712 32.8819 135.999 32.8819C137.136 32.8819 137.666 32.4637 137.666 31.7794C137.666 30.9241 136.321 30.6389 134.787 30.1637C132.837 29.5935 130.64 28.6811 130.64 25.925C130.64 23.0928 132.932 21.4962 135.715 21.4962C137.476 21.4962 139.389 22.1044 140.904 23.1118L139.408 25.849C138.026 25.0506 136.662 24.5564 135.64 24.5564C134.674 24.5564 134.182 24.9746 134.182 25.5638C134.182 26.3432 135.507 26.7043 137.003 27.2365C138.953 27.8828 141.207 28.8332 141.207 31.4183C141.207 34.5165 138.897 35.9231 135.886 35.9231C133.954 35.9231 131.777 35.2769 129.94 33.8133Z" />
    <path d="M143.366 28.72C143.366 24.7283 146.187 21.459 150.24 21.459C154.879 21.459 157 25.0705 157 29.0431C157 29.3472 156.981 29.7274 156.943 30.0886L147.267 30.0886C147.664 31.8753 148.895 32.8257 150.656 32.8257C151.982 32.8257 152.948 32.4075 154.027 31.4001L156.28 33.3959C154.993 35.0116 153.118 36 150.599 36C146.452 35.981 143.366 33.0348 143.366 28.72ZM153.175 27.5985C152.948 25.8308 151.906 24.6333 150.24 24.6333C148.611 24.6333 147.551 25.8118 147.229 27.5985L153.175 27.5985Z"/>
</svg>
