<svg id="search-icon" width="14" height="14" viewBox="0 0 14 14" xmlns="http://www.w3.org/2000/svg">
    <path fill-rule="evenodd" clip-rule="evenodd" d="M9.20232 3.026C7.49643 1.32011 4.73189 1.32011 3.026 3.026C1.32011 4.73189 1.32011 7.49643 3.026 9.20232C4.73189 10.9082 7.49643 10.9082 9.20232 9.20232C10.9082 7.49643 10.9082 4.73189 9.20232 3.026ZM13.7445 13.7445C13.403 14.0852 12.8501 14.0852 12.5085 13.7445L9.75799 10.9931C7.36293 12.7837 3.96687 12.6142 1.79105 10.4375C-0.597018 8.05035 -0.597018 4.17912 1.79105 1.79105C4.17825 -0.597018 8.05035 -0.597018 10.4375 1.79105C12.6142 3.96687 12.7837 7.36293 10.9931 9.75799L13.7445 12.5094C14.0852 12.8501 14.0852 13.403 13.7445 13.7445Z" />
    <mask id="mask0" mask-type="alpha" maskUnits="userSpaceOnUse" x="0" y="0" width="14" height="14">
        <path fill-rule="evenodd" clip-rule="evenodd" d="M9.20232 3.026C7.49643 1.32011 4.73189 1.32011 3.026 3.026C1.32011 4.73189 1.32011 7.49643 3.026 9.20232C4.73189 10.9082 7.49643 10.9082 9.20232 9.20232C10.9082 7.49643 10.9082 4.73189 9.20232 3.026ZM13.7445 13.7445C13.403 14.0852 12.8501 14.0852 12.5085 13.7445L9.75799 10.9931C7.36293 12.7837 3.96687 12.6142 1.79105 10.4375C-0.597018 8.05035 -0.597018 4.17912 1.79105 1.79105C4.17825 -0.597018 8.05035 -0.597018 10.4375 1.79105C12.6142 3.96687 12.7837 7.36293 10.9931 9.75799L13.7445 12.5094C14.0852 12.8501 14.0852 13.403 13.7445 13.7445Z"/>
    </mask>
</svg>
