<svg id="thumb-up" width="15" height="14" viewBox="0 0 15 14" xmlns="http://www.w3.org/2000/svg">
<path d="M12.1552 4.14815H11.3793V2.33333C11.3793 1.04673 10.3352 0 9.05172 0C7.76829 0 6.72414 1.04673 6.72414 2.33333V2.97033C6.72414 3.77632 6.18424 4.4939 5.41112 4.7153L4.65517 4.93184V4.92593C4.65517 4.49639 4.30779 4.14815 3.87931 4.14815H0.775862C0.347379 4.14815 0 4.49639 0 4.92593V13.2222C0 13.6518 0.347379 14 0.775862 14H3.87931C4.2779 14 4.60593 13.6985 4.64979 13.3107C5.34098 13.7526 6.15367 14 6.99885 14H12.1552C13.7238 14 15 12.7207 15 11.1481V7C15 5.42749 13.7238 4.14815 12.1552 4.14815ZM3.10345 12.4444H1.55172V5.7037H3.10345V12.4444ZM13.4483 11.1481C13.4483 11.8629 12.8682 12.4444 12.1552 12.4444H6.99885C6.0555 12.4444 5.17448 11.9674 4.65517 11.1872V6.54967L5.83738 6.21107C7.27314 5.79984 8.27586 4.46719 8.27586 2.97033V2.33333C8.27586 1.90447 8.62391 1.55556 9.05172 1.55556C9.47954 1.55556 9.82759 1.90447 9.82759 2.33333V4.92593C9.82759 5.35547 10.175 5.7037 10.6034 5.7037H12.1552C12.8682 5.7037 13.4483 6.28522 13.4483 7V11.1481Z"/>
</svg>
