<svg id="thumb-down" width="15" height="14" viewBox="0 0 15 14" xmlns="http://www.w3.org/2000/svg">
<path d="M12.1552 9.85185H11.3793V11.6667C11.3793 12.9533 10.3352 14 9.05172 14C7.76829 14 6.72414 12.9533 6.72414 11.6667V11.0297C6.72414 10.2237 6.18424 9.5061 5.41112 9.2847L4.65517 9.06816V9.07407C4.65517 9.50361 4.30779 9.85185 3.87931 9.85185H0.775862C0.347379 9.85185 0 9.50361 0 9.07407V0.777779C0 0.348237 0.347379 9.53674e-07 0.775862 9.53674e-07H3.87931C4.2779 9.53674e-07 4.60593 0.301467 4.64979 0.689267C5.34098 0.247386 6.15367 9.53674e-07 6.99885 9.53674e-07H12.1552C13.7238 9.53674e-07 15 1.27934 15 2.85185V7C15 8.57251 13.7238 9.85185 12.1552 9.85185ZM3.10345 1.55556H1.55172V8.2963H3.10345V1.55556ZM13.4483 2.85185C13.4483 2.13707 12.8682 1.55556 12.1552 1.55556H6.99885C6.0555 1.55556 5.17448 2.03265 4.65517 2.81276V7.45033L5.83738 7.78893C7.27314 8.20016 8.27586 9.53281 8.27586 11.0297V11.6667C8.27586 12.0955 8.62391 12.4444 9.05172 12.4444C9.47954 12.4444 9.82759 12.0955 9.82759 11.6667V9.07407C9.82759 8.64453 10.175 8.2963 10.6034 8.2963H12.1552C12.8682 8.2963 13.4483 7.71478 13.4483 7V2.85185Z"/>
</svg>
