<svg width="16" height="14" viewBox="0 0 16 14" fill="none" xmlns="http://www.w3.org/2000/svg">
<path fill-rule="evenodd" clip-rule="evenodd" d="M15.9181 2.05355C15.3357 2.31369 14.7086 2.48959 14.0516 2.56921C14.7225 2.16372 15.2379 1.52308 15.4801 0.759308C14.8521 1.13425 14.1569 1.40643 13.416 1.5527C12.8234 0.916691 11.9791 0.519531 11.0444 0.519531C9.24963 0.519531 7.79404 1.98412 7.79404 3.79124C7.79404 4.04861 7.82386 4.29764 7.87885 4.53742C5.17827 4.40133 2.78429 3.09783 1.18146 1.11851C0.90097 1.60177 0.74162 2.16372 0.74162 2.76362C0.74162 3.89863 1.31565 4.90032 2.18696 5.48634C1.65392 5.46968 1.15258 5.32248 0.715527 5.07715C0.715527 5.09104 0.715527 5.10492 0.715527 5.11881C0.715527 6.70374 1.83471 8.02576 3.32198 8.32664C3.04894 8.40163 2.76286 8.44143 2.46559 8.44143C2.25685 8.44143 2.05277 8.42107 1.85428 8.38218C2.26803 9.68198 3.46828 10.6281 4.89032 10.655C3.77767 11.5317 2.37613 12.0548 0.853444 12.0548C0.591588 12.0548 0.332527 12.0399 0.078125 12.0094C1.51601 12.9379 3.22413 13.4795 5.05993 13.4795C11.037 13.4795 14.306 8.4942 14.306 4.17081C14.306 4.02824 14.3023 3.88845 14.2967 3.74773C14.9313 3.28669 15.4829 2.70993 15.9181 2.05448V2.05355Z" fill="white"/>
</svg>
