<svg width="467" height="253" viewBox="0 0 467 253" fill="none" xmlns="http://www.w3.org/2000/svg">
<path d="M501.158 150.22L500.754 149.502L500.574 149.12L469.473 102.268L469.608 102.364L468.844 101.359V101.263L468.709 101.216L468.305 100.593V100.641L448.44 74.4162L447.496 73.4112L447.316 73.2198L443.496 69.3435L429.249 56.6616L429.07 56.518L429.025 56.4702L423.272 52.0674L420.575 50.0575L420.53 50.0096L417.34 47.7604L411.317 43.5969L409.115 42.1612L407.542 41.1562L406.553 40.5341L401.744 37.567L401.699 37.5192L401.61 37.4713L400.216 36.6099L398.598 35.6528L396.801 34.6478L393.07 32.5421L391.318 31.585L388.396 30.0058L387.048 29.2879L386.778 29.1443L381.745 26.5601L378.284 24.8852L378.149 24.8373L373.7 22.7795L370.734 21.4874L367.768 20.1953H367.723L367.588 20.1474L363.858 18.616L358.375 16.4625L356.981 15.9361L354.689 15.0747L352.172 14.2133L351.408 13.9261L345.835 12.0597L340.083 10.2891L334.33 8.66195L330.375 7.65697L326.51 6.69985L326.285 6.65199L325.881 6.55628L325.791 6.50842L321.162 5.45559L320.353 5.26417L314.286 4.06777L312.713 3.78063L309.072 3.1585L304.713 2.48851L301.702 2.05781L298.825 1.72281L298.421 1.67496L298.286 1.6271L297.342 1.53139L296.938 1.48353L296.623 1.43568L295.41 1.29211L293.252 1.10068L288.488 0.669982L281.387 0.23928L274.376 0H273.792H273.253H270.107H266.287L263.096 0.0478517V0.143562L260.893 0.0957107H260.669L259.995 0.143562H259.725L257.388 0.23928L254.197 0.382843H254.062H254.017L249.343 0.717841L248.085 0.813552L239.95 1.6271L238.152 1.81853L230.602 2.87136H230.557H230.512L230.287 2.91922L224.625 3.82849L221.074 4.49847L218.467 5.02489V4.97703L217.524 5.16845H217.434L212.49 6.22129H212.4L207.411 7.41769L206.782 7.56125L201.119 9.0448L196.131 10.5283L191.996 11.7726L191.861 11.8204L191.771 11.8683H191.726H191.681L191.591 11.9162L190.153 12.3469L189.884 12.4426L186.917 13.4476L184.041 14.4525H183.996L183.906 14.5004L178.154 17.0846L178.064 17.1325L177.479 17.4675L177.3 17.5632L176.626 17.946L176.536 17.9939L174.828 18.9989L174.693 19.0946L174.109 19.4296L171.862 20.8652L171.682 20.8174L171.637 20.961L138.289 37.1363L137.93 37.3277L137.705 37.4713L125.301 44.8411L125.256 44.6976L124.941 45.0804L124.761 45.1761V45.224L73.4367 90.6394L71.8637 91.0222L71.6839 91.2615L68.7177 94.7072L68.5379 94.8986L65.302 98.8228L64.8975 99.3014L61.1223 104.087L60.9875 104.278L59.01 106.91L58.9201 107.006L58.7853 107.198L56.5381 110.26L54.0663 113.706V113.754L51.1001 118.061L50.6956 118.635L47.4147 123.612L44.7631 127.824L44.2687 128.637L41.2126 133.71L40.8531 134.332L40.898 134.188L39.6846 136.342L39.5947 136.486L37.5273 140.218L35.4599 143.999L33.078 148.593L32.7634 149.215L30.1567 154.432V154.479L29.932 154.958L28.1342 158.691L27.6399 159.744L25.2579 165.056L25.213 165.151L23.1905 169.841L22.9658 170.415L20.8086 175.823L20.7636 175.871L19.4153 179.412L19.2805 179.795L19.1906 180.082L18.1569 182.858L16.8086 186.639L16.539 187.452L16.4491 187.692L14.6963 193.004L14.202 194.487L13.9772 195.205L13.9323 195.348L13.2132 197.693V197.741V197.789L12.1795 201.283L12.0447 201.809L11.7301 202.144L10.9211 204.968L9.84249 208.892L8.53915 214.06L8.44926 214.491L7.14592 220.09L6.02235 225.306L5.93247 225.737L4.85383 231.432L4.04486 236.218L3.91004 237.127L3.01118 242.87L2.69657 245.215L2.42692 247.416L2.24714 248.804L1.573 254.738L1.39323 256.365L1.21346 258.279L1.03369 260.672L0.584259 266.606L0.314606 271.823L0.26966 272.588L0.0898912 278.522L0.0449456 279.575L0 283.691V284.504L0.0449456 290.439L0.179776 295.703L0.224714 296.373L0.494374 302.307V302.355L0.808973 307.14L0.853919 307.475V307.523L1.03369 310.06L1.39323 314.175L1.93255 319.344L2.02243 320.061L2.74152 325.948L2.8314 326.666V326.713L3.41566 330.829L3.59543 331.93L4.53923 337.672L4.85383 339.395L5.30326 341.692L5.66281 343.511L6.87626 349.349L7.99983 354.422L8.17961 355.14L9.61778 360.931L9.79755 361.601L10.9661 366.051L11.1458 366.721L12.6739 372.033L15.0559 379.594L16.0446 382.561L16.2244 383.136L16.2693 383.232L16.7188 384.524L16.7637 384.619L16.8985 385.002L18.067 388.256L18.4266 389.214L19.9996 393.473L20.7187 395.339L22.4714 399.742L22.6512 400.172L24.8534 405.389L24.9433 405.58L27.1455 410.462L27.4152 411.084L29.7971 416.156V416.204L31.5948 419.841L35.0554 426.589L36.179 428.647L37.4374 430.896L37.8869 431.71L40.8081 436.782L45.2125 444.009L46.0215 445.301L46.0664 445.349L46.2462 445.636L46.2912 445.684L46.9204 446.641L49.9315 451.235L50.1113 451.522L53.4371 456.356L55.9089 459.801L55.9539 459.849L56.1786 460.136L57.9763 462.577L60.3583 465.783L61.2571 466.98L61.6616 467.506L61.7515 467.65L64.493 471.095L67.3694 474.637L67.4143 474.684L70.785 478.657L71.9535 479.996L74.74 483.155L74.7849 483.203L78.2905 486.983L78.5602 487.271L82.4252 491.29L82.4702 491.338L86.2903 495.167L86.515 495.406L90.4251 499.187L95.5486 503.877H95.5036L95.998 504.307L96.0429 504.355L97.571 505.695L98.2901 506.317L98.7395 506.7L99.5485 507.418L102.425 509.859L103.009 510.337L107.369 513.879L111.279 516.941L111.818 517.372L116.312 520.722L118.155 522.062L120.222 523.545L120.896 524.024L125.57 527.23L126.964 528.14L130.02 530.102L130.334 530.293L135.098 533.26L135.188 533.308L139.458 535.845L140.087 536.18L145.076 539.003H145.121L145.21 539.051L149.929 541.587L150.199 541.731L155.323 544.315L155.457 544.363L158.648 545.894L162.379 547.665L165.749 549.196L170.468 551.206L171.098 551.446L176.491 553.599L182.019 555.657L186.198 557.141L188.086 557.81L188.311 557.858L193.479 559.533L193.704 559.581L196.895 560.538L202.647 562.213L205.479 562.931L206.378 563.17L208.355 563.649L209.074 563.84L209.389 563.888L211.321 564.319L212.31 564.558L214.512 565.037L215.187 565.18L218.063 565.707L218.782 565.85L220.984 566.233L222.018 566.377L223.95 566.664L224.984 566.807L227.006 567.095L227.815 567.19H227.86L231.366 567.621L232.175 567.717L235.411 568.004L235.815 568.052L239.366 568.291L240.22 568.339L243.86 568.53L246.826 568.626H247.815L249.793 568.674H250.961H252.804H254.017L255.77 568.626L256.983 568.578L258.781 568.53L259.995 568.482L261.792 568.387L262.197 568.626V568.53L264.579 569.152L263.051 568.339L265.118 568.195L265.927 568.147L268.938 567.908C301.387 564.702 338.465 559.581 362.554 552.498C363.004 552.355 363.453 552.211 363.902 552.116L364.037 552.068L368.666 550.106L371.992 548.67L374.374 547.569L374.464 547.521L381.43 544.171L381.565 544.124L388.306 540.678L395.902 536.467L396.037 536.419L398.553 534.935L398.778 534.792L400.98 533.452L404.576 531.202L405.834 530.389L407.991 529.049L408.666 528.618L409.654 527.996L416.036 523.641L421.429 519.765L421.834 519.43L422.193 519.143L424.306 517.563L424.396 517.468L428.935 513.879L432.081 511.342L436.665 507.514L437.069 507.179L441.968 502.824L443.182 501.723L446.193 498.9L449.384 495.789L451.182 494.066L451.856 493.396L455.047 490.142L455.496 489.663L459.766 485.117L460.395 484.447L463.046 481.48L463.855 480.571L467.855 475.929L471.226 471.813L472.574 470.09L475.361 466.549L475.406 466.501L476.215 465.448L478.507 462.385L478.956 461.763L482.462 456.882L483.046 456.021L485.383 452.671L485.832 452.001L489.113 447.024L491.001 444.009L492.08 442.334V442.382L492.664 441.424L492.754 441.281L493.473 440.084L495.36 436.974L497.967 432.475L498.327 431.853L501.158 426.685L501.338 426.398L503.36 422.521L503.855 421.516L505.787 417.64L506.551 416.109L506.686 415.821L508.978 410.988L511.405 405.676L511.45 405.58L513.472 400.89L514.371 398.689L515.899 394.908L515.944 394.86L517.427 390.984L518.371 388.448L519.944 384.045L521.652 379.02L521.787 378.542L523.54 373.038L525.023 367.965L525.158 367.535L526.686 361.983L527.944 357.102L528.124 356.384L529.427 350.737L530.056 347.818L530.685 344.899L531.674 337.912L531.944 335.806L532.483 330.494L532.753 327.24V327.288L532.843 326.139V325.996L533.157 321.928L532.933 320.54L535 275.555L534.955 274.311V274.12L523.629 206.308L501.158 150.22ZM437.339 228.13L435.272 235.165L431.766 212.098L431.721 211.763L431.407 209.992L425.16 181.614L425.115 181.518L375.048 67.9556L375.767 68.5299L434.418 124.139L451.946 146.152V146.2L451.99 146.248L437.699 226.79L437.339 228.13ZM470.956 344.659L456.53 446.497L439.541 424.196L438.642 423.478L438.598 423.431L423.407 413.668L423.452 413.524L423.497 413.381L423.676 412.711L423.587 412.759L437.923 328.58L470.237 342.458L470.956 344.659ZM171.547 544.076L185.165 527.47L186.153 528.666L259.365 567.621L172.671 544.411L171.547 544.076ZM103.953 433.433L102.964 432.284L101.301 430.274L100.672 429.508L98.5597 426.924L98.335 426.685L64.8526 377.297L64.3133 376.34L64.493 366.003L71.2794 313.84L71.4142 313.17L95.953 348.392L96.2227 350.546L96.2676 350.737V350.785L134.694 465.4L107.099 437.022L106.605 436.495L104.987 434.629L103.953 433.433ZM17.6176 235.548L25.7073 212.242L32.1791 293.549C32.0443 293.645 31.7746 293.788 31.46 293.932C29.4376 295.033 24.359 297.808 19.1457 300.488C16.539 301.828 13.9323 303.12 11.6851 304.221C9.438 305.274 7.50547 306.087 6.38189 306.422C6.02235 306.518 5.75269 306.566 5.57292 306.566C5.57292 306.566 5.57292 306.566 5.52798 306.566L17.1232 237.223L17.6176 235.595V235.548ZM26.4264 208.892L26.9657 204.872L27.2354 202.862L27.3702 201.857L34.3364 169.506L35.3251 166.108L35.6397 165.151L36.4037 162.663L41.3025 148.689L41.6171 147.923L42.516 145.626L43.4148 143.377L43.7744 142.468L68.448 100.258L65.6615 109.399L66.3357 126.149L66.875 128.254L66.066 129.499L64.3582 132.178L26.4264 208.892ZM201.479 26.3208L285.837 46.4204L372.217 66.9985L324.353 83.8438L294.016 97.0521L272.219 106.528V106.432L271.859 106.671L219.052 45.0804L201.479 26.3208ZM374.015 67.1899L374.149 67.5728L374.194 67.5249L382.554 86.5238L373.88 67.1421L374.015 67.1899ZM424.53 181.805L430.733 210.088L431.047 211.811L431.092 212.146L434.732 236.026L385.475 165.773L385.25 165.486L384.351 164.386L370.464 148.832L370.554 148.689L370.419 148.641L375.633 92.2665L374.689 78.9625L373.925 68.6735L424.53 181.805ZM381.161 504.929L402.014 469.612L402.149 469.325L403.272 467.027L403.677 466.214L404.576 464.3L405.16 463.055L405.879 461.476L406.553 459.945L407.138 458.605L407.902 456.882L408.396 455.733L409.205 453.867L409.654 452.814L410.463 450.852L410.868 449.895L411.677 447.837L412.036 446.976L412.89 444.822L413.16 444.104L414.014 441.807L414.194 441.329L415.137 438.792L423.137 414.338L438.193 424.005L438.238 424.053L439.092 424.723L456.26 447.263L381.161 504.929ZM422.643 413.907L414.553 438.553L413.609 441.09L413.43 441.568L412.576 443.865L412.306 444.583L411.452 446.736L411.092 447.598L410.284 449.656L409.879 450.613L409.07 452.575L408.621 453.628L407.812 455.494L407.317 456.643L406.553 458.366L405.969 459.705L405.295 461.237L404.576 462.816L403.992 464.06L403.093 465.975L402.688 466.788L401.565 469.085L401.43 469.372L380.217 505.264L380.801 495.837L376.307 478.609L376.127 478.226L375.992 477.939L364.037 460.758L353.7 450.613L354.734 449.991L361.97 445.636L384.981 432.667L407.227 421.325L408.351 420.799L408.755 420.607L422.643 413.907ZM228.13 456.691L190.243 385.72L243.321 339.539L243.276 340.065L243.815 339.252L270.242 359.926L271.904 361.744L228.669 456.691H228.13ZM33.078 294.458L70.8749 312.596L70.785 312.979L70.6053 313.744L63.8638 365.955L63.6841 374.809L60.0437 365.238L33.078 294.458ZM32.8083 293.549L29.6623 253.972L26.2466 211.237V211.189L42.0216 217.554L64.8076 223.296L65.2571 223.392L67.4143 223.823L67.9087 223.919L70.0659 224.349L70.2008 224.397L99.4586 229.566L95.6834 237.988L71.0547 311.926L32.8083 293.549ZM67.1447 129.164L77.4366 185.012L77.6164 185.49L78.65 188.17L78.9646 188.936L79.9983 191.472L80.3129 192.238L81.4365 194.822L81.7062 195.396L82.9646 198.22L83.0994 198.507L91.5037 215.304L91.5936 215.448L93.2115 218.415L94.0205 219.851L94.5598 220.808L99.2788 228.848L91.234 227.412L70.3356 223.727L70.2008 223.679L68.0435 223.249L67.5491 223.153L65.3919 222.722L64.9874 222.626L42.2014 216.979L26.2916 210.567L64.9425 132.561L66.6503 129.881L67.1447 129.164ZM160.581 179.221L232.669 132.753L271.455 107.772L252.309 265.41L243.456 338.151L100.447 229.374L148.401 189.366L160.581 179.221ZM383.857 164.864L384.756 165.917L384.981 166.156L434.777 237.175L434.822 237.27L354.509 273.258H354.464L350.06 275.507L316.892 293.214L314.42 294.602L312.982 295.416L249.793 334.275L248.714 334.993L244.894 337.529L370.06 149.359L383.857 164.864ZM96.807 350.45L96.6272 348.775L189.344 385.816L144.671 452.24L135.503 465.927L96.8519 350.641L96.807 350.45ZM96.5373 348.009L96.2676 345.712L96.2227 345.425L100.178 229.996L195.906 302.785L243.186 338.773L189.749 385.289L96.5373 348.009ZM244.22 337.433L272.129 107.58L369.52 149.024L244.22 337.433ZM244.309 338.773L249.073 335.567L250.152 334.849L313.297 296.038L314.69 295.224L317.162 293.836L350.33 276.13L354.734 273.88H354.779L434.732 238.036L397.07 335.758L272.399 360.548L272.174 361.026L270.646 359.351L244.309 338.773ZM272.848 361.122L396.756 336.524L353.071 449.799L272.668 361.553L272.848 361.122ZM353.071 449.799L396.756 336.524L353.071 449.799ZM374.913 92.2665L369.745 148.402L272.713 107.102L324.622 84.5138L373.161 67.4292L374.913 92.2665ZM96.2676 238.275L99.5485 230.953L95.5935 345.425L95.6385 345.76L95.7733 347.004L71.594 312.309L96.2676 238.275ZM189.794 386.246L136.042 466.214L189.794 386.246ZM189.794 386.246L227.456 456.738L136.042 466.214L189.794 386.246ZM229.388 456.547L272.354 362.175L352.352 449.943L324.263 446.736L229.388 456.547ZM408.486 419.841L408.081 420.033L406.958 420.559L384.711 431.901L361.7 444.87L353.835 449.608L357.835 439.271L397.52 336.38L437.294 328.484L422.912 413.046L408.486 419.841ZM397.789 335.663L435.092 238.85L437.339 327.814L397.789 335.663ZM200.49 26.2251L218.602 45.5111L262.826 97.0521L270.961 106.528L269.298 106.193L266.826 105.666L151.997 90.4001L200.49 26.2251ZM151.502 91.2137L151.547 91.2615L151.592 91.0701L266.691 106.384L269.163 106.91L270.961 107.293L160.221 178.647L100.537 228.465L114.604 178.168L137.3 120.597L138.739 117.487L138.918 117.152L144.941 104.47L145.21 103.896L146.649 101.024L151.502 91.2137ZM146.019 100.689L144.581 103.561L144.312 104.135L138.289 116.817L138.109 117.2L136.671 120.31L113.975 177.929L99.8181 228.561L113.975 177.929L99.8181 228.561L95.0991 220.521L94.5598 219.564L93.7508 218.128L92.1329 215.161L92.043 215.017L83.6387 198.22L83.5039 197.933L82.2455 195.109L81.9758 194.535L80.8522 191.951L80.5376 191.185L79.5039 188.649L79.1894 187.883L78.1557 185.203L77.9759 184.772L67.5941 128.494L124.132 101.263L150.649 91.2615L146.019 100.689ZM5.75269 307.284C5.9774 307.236 6.24706 307.188 6.51672 307.092C7.90995 306.662 10.202 305.657 12.8986 304.365C20.2243 300.871 30.4263 295.272 32.3139 294.219L63.6391 376.388L41.2576 429.843C39.7745 424.627 31.7746 396.583 23.6849 368.587C19.2356 353.082 14.7413 337.529 11.3256 325.9C9.61778 320.061 8.17961 315.228 7.14592 311.878C6.65155 310.203 6.20212 308.863 5.93247 307.954C5.88752 307.715 5.79763 307.475 5.75269 307.284ZM136.087 466.932H136.177L136.132 466.884L201.479 460.136L227.815 457.408L228.04 457.839L185.165 526.417L136.087 466.932ZM261.747 568.147L186.558 528.14L185.569 526.943L228.4 458.461L259.59 516.893L260.039 527.805L261.747 568.147ZM228.759 457.839L228.939 457.504L229.074 457.265L324.263 447.406L352.262 450.613L259.995 516.319L228.759 457.839ZM353.161 450.852L353.296 450.996V450.948L363.588 461.045L375.498 478.13L375.633 478.417L375.767 478.752L380.217 495.837L379.588 506.126L261.073 516.367L353.161 450.852ZM380.082 506.796L380.172 506.604L380.262 506.461L454.103 449.751L366.24 547.234L380.082 506.796ZM437.968 327.862L435.766 240.429L469.923 341.597L437.968 327.862ZM452.26 145.53L434.867 123.66L376.172 68.0035L375.633 67.5728L417.564 77.2397L417.879 77.3354L468.215 101.694L465.383 121.219L452.26 145.53ZM386.419 29.6229L386.689 29.7665L388.037 30.4843L390.958 32.0636L392.711 33.0207L396.441 35.1264L398.239 36.1313L399.857 37.0885L401.25 37.9499L401.34 37.9977L401.385 38.0456L406.194 41.0126L407.182 41.6348L408.755 42.6398L410.958 44.0755L416.98 48.2389L420.171 50.4882L420.216 50.536L422.912 52.546L428.665 56.9487L428.71 56.9966L428.89 57.1402L443.137 69.822L446.957 73.6984L447.137 73.8898L448.08 74.8948L467.541 100.593L418.149 76.7133L417.789 76.6176L374.869 66.7592L385.385 51.2539L385.43 51.206L385.79 50.5839L389.745 39.4813L389.79 39.242L389.835 38.9548V38.907L388.262 32.0636L388.127 31.8243L388.037 31.6807V31.6329L387.992 31.585L385.745 29.1922L386.419 29.6229ZM312.398 4.30705L313.971 4.59418L320.038 5.79058L320.847 5.98201L325.476 7.03484L325.566 7.08269L325.971 7.17841L326.15 7.22626L330.016 8.18338L333.971 9.18836L339.723 10.8155L345.476 12.5861L351.049 14.4525L351.813 14.6918L354.33 15.6011L356.577 16.4146L357.97 16.941L363.453 19.0946L367.183 20.626L367.318 20.6738H367.363L370.329 21.9659L373.296 23.258L377.7 25.3159L377.835 25.4116L381.25 27.0865L381.385 27.1822L384.441 29.1443L387.318 32.1114L387.408 32.255L387.497 32.3986L389.026 39.0027V39.242V39.4334L385.116 50.3924L384.801 50.9667L374.329 66.3285L372.082 60.2508L372.037 60.2029L371.857 59.7244V59.6765L352.442 28.2351L352.217 27.9958L351.363 27.0865L351.004 26.7515L350.195 25.938L349.835 25.603L348.981 24.7894L348.802 24.6459L348.757 24.598L348.622 24.5023L310.241 4.01991L312.398 4.30705ZM273.028 0.478561H273.522H274.107L281.118 0.717841L288.219 1.14854L292.983 1.57924L295.14 1.77067L296.353 1.91424L296.668 1.96209L297.072 2.00995L298.016 2.10566L307.949 3.87634L348.487 24.9809L348.622 25.1244L349.476 25.938L349.835 26.273L350.644 27.0865L350.959 27.4215L351.813 28.3308L351.993 28.5222L371.318 59.8201L371.498 60.2508L371.543 60.2987L373.61 65.85L373.52 65.7542L373.61 65.8978L373.385 65.7542L373.071 65.0364L373.116 65.5628L273.028 0.478561ZM272.399 0.861404L350.689 51.9717L271.14 0.813552L272.399 0.861404ZM237.973 2.24923L239.725 2.05781L247.86 1.24425L249.118 1.14854L253.792 0.813552H253.837H253.972L257.163 0.669982L259.5 0.574271H259.725H260.399H260.579L269.927 0.861404L369.475 64.8928L231.501 3.1585L237.973 2.24923ZM220.984 4.97703L224.49 4.30705L230.152 3.34993H230.287L337.791 51.3974L369.97 65.8021L263.185 40.3427L201.074 25.5551L213.164 10.959L217.568 5.64701L220.984 4.97703ZM196.086 11.0547L201.074 9.61907L206.737 8.13553L207.366 7.99196L212.355 6.79556H212.445L216.58 5.88629L211.951 11.4376L200.49 25.2202L198.423 22.2531L198.063 21.7267L197.973 21.6309L193.299 14.6918L193.254 14.644L193.12 14.4047L193.03 14.309L192.85 14.0218L192.086 12.299L196.086 11.0547ZM174.244 19.8124L174.828 19.4774L174.963 19.3817L176.626 18.4246L176.715 18.3767L177.39 17.9939L177.569 17.8982L178.154 17.5632L178.199 17.5153L183.906 14.9789L183.996 14.9311H184.041L186.917 13.9261L189.884 12.9211L190.108 12.8254L191.412 12.3947L192.221 14.2611L192.266 14.309L192.445 14.5961L192.535 14.6918L192.67 14.9311L192.715 15.0268L197.434 21.9659L197.524 22.0616L197.883 22.5881L199.681 25.1723L199.456 25.1244L199.546 25.2202L172.626 20.7695L174.244 19.8124ZM171.907 21.3917L199.861 25.9858L169.704 65.8978L152.132 89.1559L171.907 21.3917ZM137.795 37.8542L138.02 37.7106L138.379 37.5192L171.187 21.6309L151.233 90.1609L135.458 78.1968L129.346 58.3844L125.301 45.224L137.795 37.8542ZM134.919 78.6275L146.649 87.5288L150.738 90.6394L123.997 100.689L68.0435 127.632L88.9869 85.9017L89.1667 85.6145L90.7397 83.2217L90.9644 82.9346L107.773 64.51L124.851 45.7983L134.919 78.6275ZM90.4251 82.456L90.2004 82.791L88.6274 85.1838L88.4026 85.5188L67.4143 127.393L67.0548 126.053L66.3806 109.495L69.4817 99.2535L73.8412 91.1658L120.402 49.6267L90.4251 82.456ZM41.6621 134.141L44.7182 129.068L45.2125 128.254L47.8642 124.043L51.145 119.066L51.5495 118.492L54.5157 114.185L56.9876 110.739L59.2347 107.676L59.3695 107.485L59.4594 107.389L61.4369 104.757L61.5717 104.566L65.3469 99.8278L65.7514 99.3492L68.9873 95.425L69.1671 95.2336L72.1333 91.7879L72.1783 91.6922L72.8974 91.5008L43.28 142.18L42.8755 143.138L41.9766 145.387L41.0778 147.684L40.7632 148.45L35.8644 162.424L35.1004 164.912L34.7858 165.869L33.7971 169.267V169.315L26.8309 201.713L26.6961 202.766L26.4264 204.776L26.0219 207.983L24.7186 195.014L24.6736 194.296V193.721L40.1789 136.868L41.6621 134.141ZM14.4267 195.348L15.0559 193.339L16.8086 188.027L16.8985 187.787L17.1682 186.974L18.5165 183.193L19.5502 180.417L19.64 180.13L19.7749 179.747L21.1232 176.206L21.1681 176.158L23.3254 170.75L23.5501 170.176L25.5725 165.486L25.6174 165.391L27.9994 160.079L28.4488 159.026L30.2466 155.293L30.4713 154.814V154.767L33.078 149.55L33.3926 148.928L35.7745 144.334L37.8419 140.553L38.6958 139.022L23.8197 193.482V193.53V194.152L23.8647 194.87L25.3927 210.04L21.6625 208.174H21.6175L14.4267 195.348ZM9.52789 358.442L8.71892 355.14L8.53915 354.422L7.41557 349.349L6.20212 343.511L5.84257 341.692L5.39315 339.395L5.07855 337.672L4.13475 331.93L3.95497 330.829L3.37072 326.713V326.666L3.28083 325.948L2.56175 320.061L2.47186 319.344L1.93255 314.175L1.573 310.06L1.39323 307.523V307.475L1.34829 307.14L1.03369 302.355V302.307L0.764034 296.373L0.719089 295.703L0.584259 290.486V290.439L0.53932 284.504V283.739L0.584259 279.623L0.629204 278.57L0.808973 272.636L0.853919 271.87L1.12357 266.654L1.573 260.72L1.75278 258.327L1.93255 256.413L2.11232 254.786L2.78646 248.852L2.96623 247.464L3.23589 245.262L3.55049 242.917L4.44935 237.175L4.58418 236.265L5.39315 231.48L6.47178 225.833L6.56166 225.402L7.68523 220.186L8.98857 214.587L9.07847 214.204L10.3818 209.035L11.4604 205.111L12.2694 202.288L12.3144 202.096L12.4492 201.57L13.4829 198.028V197.981L14.0222 196.162L21.1232 208.748L21.213 208.796L21.3029 208.844L25.2579 210.806V210.854H25.3028L16.8536 235.26L16.8086 235.356L16.3143 237.031L4.67406 306.566V306.614V306.805L4.62912 308.815L8.44926 353.896L9.52789 358.442ZM41.3025 436.83L38.3812 431.758L37.9318 430.944L36.6734 428.695L35.5498 426.637L32.0892 419.889L30.2915 416.252V416.204L27.9095 411.132L27.6399 410.509L25.4377 405.628L25.3478 405.437L23.1456 400.22L22.9658 399.79L21.213 395.387L20.494 393.521L18.921 389.261L18.5614 388.304L17.3929 385.05L17.2581 384.667L17.2131 384.571L16.7637 383.279L14.6064 375.622L11.4604 364.52V364.424L9.21329 353.991L5.39315 308.959V308.48C5.79763 309.725 6.38189 311.639 7.10098 314.079C11.1009 327.336 19.5052 356.576 26.9657 382.466C30.696 395.435 34.1566 407.542 36.7183 416.444C39.0554 424.579 40.5834 429.987 40.8531 430.848L40.898 430.944V430.992L44.044 441.377L41.3025 436.83ZM60.8527 465.879L58.4707 462.673L56.673 460.232L56.4483 459.945L56.4033 459.897L53.9315 456.451L53.8865 456.403L50.5607 451.57L50.381 451.331L47.3698 446.736L46.7406 445.779L46.6956 445.732L46.5159 445.444L45.0328 442.334L41.4823 430.896L63.9088 377.297L64.2234 378.063V377.584L64.2683 377.632L97.7957 427.02L98.0204 427.307L100.133 429.891L100.762 430.657L102.425 432.667L103.414 433.815L104.447 435.012L106.065 436.878L106.56 437.452L134.604 466.262L62.0661 467.458L60.8527 465.879ZM90.9194 499.235L87.0094 495.454L86.7847 495.215L82.9646 491.386L82.9196 491.338L79.0545 487.318L78.7849 487.031L75.2793 483.251V483.203L72.4929 480.044L71.3243 478.704L67.9536 474.732L67.9087 474.684L65.0323 471.143L62.6054 468.128L89.2116 467.697L134.784 466.932L134.739 466.98L135.188 466.932L135.323 467.315L135.458 467.123L184.76 526.943L170.918 543.836L98.0654 505.647L96.6272 504.355L90.9194 499.235ZM259.006 568.482L257.208 568.53L255.995 568.578L254.242 568.626H253.028H251.186H250.062L248.085 568.578H247.096L244.13 568.482L240.534 568.291L239.68 568.243L236.13 568.004L235.725 567.956L232.49 567.669L231.681 567.573L228.175 567.142H228.13L227.321 567.047L225.299 566.76L224.265 566.616L222.332 566.329L221.299 566.185L219.141 565.802L218.422 565.659L215.546 565.132L214.872 564.989L212.67 564.51L211.681 564.271L209.748 563.84L209.434 563.792L208.715 563.601L206.737 563.122L205.838 562.883L203.007 562.165L197.254 560.538L194.063 559.581L193.839 559.533L188.67 557.858L188.445 557.81L186.558 557.141L182.378 555.657L176.895 553.599L171.502 551.446L170.873 551.206L166.199 549.196L162.828 547.665L159.098 545.894L155.907 544.363L155.772 544.315L150.693 541.731L150.424 541.587L145.705 539.051L145.615 539.003H145.57L140.581 536.18L139.952 535.845L135.727 533.308L135.638 533.26L130.874 530.293L130.559 530.102L127.503 528.14L126.11 527.23L121.436 524.024L120.762 523.545L118.694 522.062L116.851 520.722L112.357 517.372L111.818 516.941L107.908 513.879L103.593 510.337L103.009 509.859L100.223 507.514L170.918 544.554H170.963L171.232 544.65L172.581 545.033L259.995 568.435L259.006 568.482ZM363.858 552.116C363.453 552.211 363.049 552.355 362.644 552.451C338.645 559.485 301.567 564.606 269.163 567.812L266.152 568.052L265.343 568.099L263.185 568.243L262.421 568.291L260.848 531.49L260.219 517.085L379.273 506.796L378.868 507.466L379.228 507.179L365.116 548.383L363.498 550.153L261.972 517.229L261.792 517.851L363.678 550.919L364.532 549.962L363.858 552.116ZM407.946 529.145L405.789 530.485L404.531 531.298L400.935 533.547L398.733 534.887L398.508 535.031L395.992 536.467L395.857 536.514L388.262 540.726L381.52 544.171L381.385 544.219L374.419 547.569L374.329 547.617L371.947 548.718L369.206 549.914V549.866L368.352 550.249L365.7 551.398L364.622 551.876L365.655 548.861L456.125 448.507L445.114 497.655L408.576 528.762L407.946 529.145ZM491.001 444.2L489.113 447.215L485.832 452.192L485.383 452.862L483.046 456.212L482.462 457.026L478.956 461.907L478.507 462.529L476.215 465.592L475.406 466.645L475.361 466.693L472.574 470.234L471.226 471.957L467.855 476.024L463.855 480.666L463.046 481.576L460.395 484.495L459.766 485.165L455.496 489.711L455.047 490.19L451.856 493.444L451.182 494.114L449.384 495.837L446.193 498.947L443.182 501.771L441.968 502.872L437.069 507.227L436.665 507.562L432.126 511.39L428.98 513.926L424.441 517.468L424.351 517.563L422.238 519.143L421.879 519.43L421.474 519.765L416.081 523.641L413.654 525.268L445.833 497.895L456.979 447.981L457.024 448.029L457.114 447.502L484.215 441.042L485.113 440.898L485.338 440.85L486.012 440.754L486.282 440.707L486.911 440.611L487.181 440.563L487.81 440.515H487.99L488.574 440.467H488.754L490.012 440.419H490.147H490.641H490.686H491.136H491.36H491.45L492.933 440.802V440.898L492.889 441.09L492.664 441.424L492.574 441.568L491.001 444.2ZM531.719 335.997L531.45 338.103L530.461 345.09L529.832 348.009L529.202 350.929L527.899 356.576L527.719 357.293L526.506 362.175L524.978 367.726L524.843 368.157L523.36 373.23L521.607 378.733L521.472 379.212L519.764 384.236L518.191 388.639L517.248 391.176L515.764 395.052L515.719 395.1L514.191 398.88L513.293 401.082L511.315 405.724L511.27 405.82L508.888 411.132L506.596 415.965L506.461 416.252L505.697 417.784L503.765 421.66L503.27 422.665L501.248 426.541L501.068 426.828L498.237 431.997L497.877 432.619L495.271 437.117L493.428 440.228L493.338 440.372L491.45 439.893H491.316H491.046H490.596H490.507H490.012H489.877L488.619 439.941H488.439L487.855 439.989H487.675L487.046 440.037L486.776 440.084L486.147 440.18L485.877 440.228L485.203 440.324L484.979 440.372L484.08 440.515L457.743 446.784L489.338 411.275L514.866 374.426L515.135 373.995L515.63 373.134L531.629 335.95L531.944 334.849L531.719 335.997ZM530.955 335.663L515 372.751L514.506 373.612L514.281 374.043L488.799 410.797L457.204 446.306L471.586 344.612L471.001 342.937L514.371 370.693L514.686 370.119L470.777 341.98L470.687 341.932L435.721 238.228V238.132L507.72 274.933L532.528 326.043L532.303 330.685L530.955 335.663ZM532.753 320.827L532.573 324.703L508.169 274.455L435.676 237.366L435.856 236.84L435.541 236.935L435.496 236.553L437.923 228.226L438.283 226.934L452.485 146.727L459.136 152.804L517.787 233.538L532.753 320.827ZM534.73 274.407V274.598L534.775 275.795L532.843 317.86L518.416 233.298L459.676 152.374L452.755 146.057L465.968 121.411L468.754 102.364L500.079 149.502L500.259 149.837L500.619 150.507L523.45 206.69L534.73 274.407Z" fill="#E1E4E6"/>
</svg>
